<?xml version="1.0" encoding="utf-8"?>
<!-- Generator: Adobe Illustrator 18.0.0, SVG Export Plug-In . SVG Version: 6.00 Build 0)  -->
<!DOCTYPE svg PUBLIC "-//W3C//DTD SVG 1.1//EN" "http://www.w3.org/Graphics/SVG/1.1/DTD/svg11.dtd">
<svg version="1.1" id="Layer_1" xmlns="http://www.w3.org/2000/svg" xmlns:xlink="http://www.w3.org/1999/xlink" x="0px" y="0px"
	 viewBox="0 0 512 512" style="enable-background:new 0 0 512 512;" xml:space="preserve">
<g>
	<g>
		<path d="M254,275h-63.5v52.4H254c18.3,0,29.3-9.7,29.3-26.2C283.4,286.7,273,275,254,275z M278.9,207.7
			c0-14.1-10.4-24.1-26.9-24.1h-61.4v48.3H252C268.5,231.9,278.9,222.6,278.9,207.7z M-0.5-0.5v512h512v-512H-0.5z M266.5,370.5
			h-125v-230h121.2c43.8,0,66.3,27.9,66.3,58.6c0,28.6-17.9,48.3-39.7,52.8c24.9,3.8,44.2,27.6,44.2,56.2
			C333.4,342.9,310.6,370.5,266.5,370.5z M388.9,240.2l-19-15.5c11-5.9,23.8-20.3,26.6-32.8c-1,0.7-3.8,1-6.6,1
			c-13.1,0-23.5-10-23.5-24.8c0-14.8,12.4-27.2,27.3-27.2c16.2,0,30.7,12.8,30.7,35.2C424.5,202,410.3,225.1,388.9,240.2z"/>
	</g>
</g>
</svg>
